<svg width="20" height="18" viewBox="0 0 20 18" fill="none" xmlns="http://www.w3.org/2000/svg">
<path d="M9.99986 3.99291L2.41201 10.6842C2.35576 10.7349 2.28389 10.7585 2.22208 10.8006V17.2221C2.22208 17.3694 2.28061 17.5107 2.3848 17.6149C2.48898 17.7191 2.63029 17.7776 2.77764 17.7776H17.2221C17.3694 17.7776 17.5107 17.7191 17.6149 17.6149C17.7191 17.5107 17.7776 17.3694 17.7776 17.2221V10.8019C17.7186 10.7617 17.6485 10.7387 17.595 10.6908L9.99986 3.99291ZM13.3332 13.0554C13.3332 13.1291 13.3039 13.1997 13.2518 13.2518C13.1997 13.3039 13.1291 13.3332 13.0554 13.3332H11.111V15.2776C11.111 15.3513 11.0817 15.422 11.0296 15.4741C10.9775 15.5261 10.9069 15.5554 10.8332 15.5554H9.16652C9.09285 15.5554 9.0222 15.5261 8.97011 15.4741C8.91801 15.422 8.88875 15.3513 8.88875 15.2776V13.3332H6.9443C6.87063 13.3332 6.79998 13.3039 6.74788 13.2518C6.69579 13.1997 6.66652 13.1291 6.66652 13.0554V11.3887C6.66652 11.3151 6.69579 11.2444 6.74788 11.1923C6.79998 11.1402 6.87063 11.111 6.9443 11.111H8.88875V9.16652C8.88875 9.09285 8.91801 9.0222 8.97011 8.97011C9.0222 8.91801 9.09285 8.88875 9.16652 8.88875H10.8332C10.9069 8.88875 10.9775 8.91801 11.0296 8.97011C11.0817 9.0222 11.111 9.09285 11.111 9.16652V11.111H13.0554C13.1291 11.111 13.1997 11.1402 13.2518 11.1923C13.3039 11.2444 13.3332 11.3151 13.3332 11.3887V13.0554ZM19.8155 8.20402L10.9287 0.356801C10.6743 0.126837 10.3436 -0.000488281 10.0007 -0.000488281C9.65782 -0.000488281 9.32713 0.126837 9.07277 0.356801L0.183885 8.20402C0.129587 8.25278 0.0854266 8.31176 0.0539276 8.37759C0.0224286 8.44342 0.00420788 8.51481 0.000306294 8.58768C-0.0035953 8.66055 0.0068987 8.73348 0.0311888 8.8023C0.0554789 8.87111 0.0930892 8.93447 0.141871 8.98875L0.885274 9.81583C0.934032 9.87013 0.99301 9.91429 1.05884 9.94579C1.12467 9.97729 1.19606 9.99551 1.26893 9.99941C1.3418 10.0033 1.41473 9.99282 1.48355 9.96853C1.55236 9.94424 1.61572 9.90663 1.67 9.85784L9.6325 2.83423C9.73399 2.74469 9.86468 2.69528 10 2.69528C10.1354 2.69528 10.2661 2.74469 10.3676 2.83423L18.3301 9.8575C18.3843 9.90628 18.4477 9.94389 18.5165 9.96818C18.5853 9.99247 18.6583 10.003 18.7311 9.99906C18.804 9.99516 18.8754 9.97694 18.9412 9.94544C19.0071 9.91394 19.066 9.86978 19.1148 9.81548L19.8578 8.9884C19.9562 8.87875 20.007 8.73453 19.9991 8.58744C19.9911 8.44035 19.9251 8.30244 19.8155 8.20402Z" fill="#434343"/>
</svg>
