<svg width="20" height="17" viewBox="0 0 20 17" fill="none" xmlns="http://www.w3.org/2000/svg">
    <path d="M2.19724 16.1905H17.8028C18.9814 14.7259 19.7205 12.9594 19.935 11.0946C20.1495 9.22983 19.8306 7.34264 19.0151 5.6505C18.1996 3.95836 16.9207 2.53014 15.3257 1.53043C13.7307 0.530717 11.8845 0.000195546 10 0C8.11545 0.000195546 6.26931 0.530717 4.67431 1.53043C3.07932 2.53014 1.80038 3.95836 0.984877 5.6505C0.169375 7.34264 -0.1495 9.22983 0.0649973 11.0946C0.279494 12.9594 1.01863 14.7259 2.19724 16.1905ZM10 1.24542C10.6877 1.24542 11.2504 1.80586 11.2504 2.49084C11.2504 3.17582 10.6877 3.73626 10 3.73626C9.31226 3.73626 8.74956 3.17582 8.74956 2.49084C8.74956 1.80586 9.31226 1.24542 10 1.24542ZM4.99823 3.73626C5.68597 3.73626 6.24867 4.2967 6.24867 4.98168C6.24867 5.66667 5.68597 6.22711 4.99823 6.22711C4.31049 6.22711 3.74779 5.66667 3.74779 4.98168C3.74779 4.2967 4.31049 3.73626 4.99823 3.73626ZM15.0018 3.73626C15.6895 3.73626 16.2522 4.2967 16.2522 4.98168C16.2522 5.66667 15.6895 6.22711 15.0018 6.22711C14.314 6.22711 13.7513 5.66667 13.7513 4.98168C13.7513 4.2967 14.314 3.73626 15.0018 3.73626ZM8.28689 10.6484L12.5009 4.98168V12.4542C12.5009 13.8242 11.3755 14.9451 10 14.9451C8.62451 14.9451 7.49912 13.8242 7.49912 12.4542C7.49912 11.7443 7.79922 11.1092 8.28689 10.6484ZM2.49735 8.71795C3.18509 8.71795 3.74779 9.27839 3.74779 9.96337C3.74779 10.6484 3.18509 11.2088 2.49735 11.2088C1.8096 11.2088 1.2469 10.6484 1.2469 9.96337C1.2469 9.27839 1.8096 8.71795 2.49735 8.71795ZM17.5027 8.71795C18.1904 8.71795 18.7531 9.27839 18.7531 9.96337C18.7531 10.6484 18.1904 11.2088 17.5027 11.2088C16.8149 11.2088 16.2522 10.6484 16.2522 9.96337C16.2522 9.27839 16.8149 8.71795 17.5027 8.71795ZM11.2504 12.4542C11.2504 11.7692 10.6877 11.2088 10 11.2088C9.31226 11.2088 8.74956 11.7692 8.74956 12.4542C8.74956 13.1392 9.31226 13.6996 10 13.6996C10.6877 13.6996 11.2504 13.1392 11.2504 12.4542Z"
          fill="#434343"/>
</svg>
