<svg width="16" height="20" viewBox="0 0 16 20" fill="none" xmlns="http://www.w3.org/2000/svg">
<path d="M14.7368 16.8421C14.7368 17.6796 14.4041 18.4829 13.8119 19.0751C13.2197 19.6673 12.4165 20 11.5789 20H4.21053C3.373 20 2.56978 19.6673 1.97756 19.0751C1.38534 18.4829 1.05263 17.6796 1.05263 16.8421V4.21053H0V1.05263H4.73684L5.78947 0H10L11.0526 1.05263H15.7895V4.21053H14.7368V16.8421ZM2.10526 4.21053V16.8421C2.10526 17.4005 2.32707 17.9359 2.72188 18.3308C3.11669 18.7256 3.65218 18.9474 4.21053 18.9474H11.5789C12.1373 18.9474 12.6728 18.7256 13.0676 18.3308C13.4624 17.9359 13.6842 17.4005 13.6842 16.8421V4.21053H2.10526ZM14.7368 3.15789V2.10526H10.5263L9.47368 1.05263H6.31579L5.26316 2.10526H1.05263V3.15789H14.7368ZM4.21053 6.31579H5.26316V16.8421H4.21053V6.31579ZM10.5263 6.31579H11.5789V16.8421H10.5263V6.31579Z" fill="#434343"/>
</svg>
