<svg width="18" height="20" viewBox="0 0 18 20" fill="none" xmlns="http://www.w3.org/2000/svg">
<path d="M8.53484 17.5538V17.5342L6.73445 14.7162C6.66922 14.6119 6.57789 14.5434 6.46048 14.5108C6.34306 14.4781 6.22564 14.4945 6.10823 14.5597L5.95167 14.6575C5.8473 14.7097 5.79185 14.801 5.78533 14.9315C5.77881 15.062 5.80816 15.1794 5.87339 15.2838L7.02799 17.0841C7.0019 17.0711 6.96928 17.0613 6.93015 17.0548C6.89101 17.0483 6.85513 17.0417 6.82251 17.0352C6.7899 17.0287 6.76054 17.0189 6.73445 17.0059C6.05604 16.8363 5.42003 16.5753 4.82643 16.2231C4.23282 15.8708 3.70118 15.4436 3.23152 14.9413C2.76185 14.439 2.36394 13.8813 2.03778 13.2681C1.09844 11.4547 0.941887 9.57599 1.56811 7.63209C1.71162 7.16243 1.90405 6.71559 2.14541 6.29158C2.38677 5.86758 2.664 5.47293 2.97711 5.10763C3.29022 4.74234 3.63921 4.40965 4.02408 4.10959C4.40895 3.80952 4.82317 3.54207 5.26674 3.30724C5.41025 3.22896 5.5081 3.11155 5.56028 2.95499C5.61247 2.79843 5.59942 2.64514 5.52114 2.49511C5.44287 2.34507 5.32545 2.24397 5.16889 2.19178C5.01234 2.1396 4.8623 2.15264 4.7188 2.23092C3.68814 2.76582 2.79773 3.46706 2.04756 4.33464C1.2974 5.20222 0.752716 6.17743 0.413511 7.26027C0.0612609 8.35616 -0.0659406 9.46836 0.0319067 10.5969C0.129754 11.7254 0.439604 12.7984 0.961457 13.816C1.52245 14.8989 2.27913 15.8219 3.23152 16.5851C4.1839 17.3483 5.24717 17.88 6.42134 18.18C6.43439 18.1931 6.44743 18.1996 6.46048 18.1996H6.49962L4.91449 19.0215C4.81012 19.0737 4.74163 19.1585 4.70901 19.2759C4.67639 19.3933 4.6927 19.5042 4.75793 19.6086L4.81664 19.7652C4.96015 20 5.14932 20.0587 5.38416 19.9413L8.30001 18.4344L8.4957 18.3366C8.60007 18.2714 8.66857 18.18 8.70118 18.0626C8.7338 17.9452 8.71749 17.8343 8.65226 17.7299L8.53484 17.5538ZM16.6953 6.24266C16.1343 5.15982 15.3874 4.23679 14.4546 3.47358C13.5218 2.71037 12.4683 2.17873 11.2941 1.87867C11.1767 1.83953 11.0071 1.80039 10.7853 1.76125L12.3509 0.978474C12.4683 0.913242 12.5466 0.821918 12.5857 0.704501C12.6249 0.587084 12.6183 0.47619 12.5662 0.37182L12.5074 0.215264C12.4683 0.150033 12.4129 0.0978474 12.3411 0.0587084C12.2693 0.0195695 12.1943 0 12.1161 0C12.0378 0 11.9595 0.0130463 11.8812 0.0391389L8.96537 1.54599L8.76968 1.64384C8.65226 1.70907 8.5805 1.80039 8.55441 1.91781C8.52832 2.03522 8.54789 2.14612 8.61312 2.25049L8.71097 2.44618H8.73054L10.5309 5.26419C10.5962 5.36856 10.6875 5.43705 10.8049 5.46967C10.9223 5.50228 11.0332 5.48598 11.1376 5.42074L11.2941 5.3229C11.3985 5.27071 11.4572 5.17939 11.4703 5.04892C11.4833 4.91846 11.4572 4.80104 11.392 4.69667L10.2374 2.89628C10.5244 2.93542 10.7723 2.98761 10.981 3.05284C11.268 3.13112 11.5485 3.22244 11.8225 3.32681C12.0965 3.43118 12.3607 3.55512 12.6151 3.69863C12.8695 3.84214 13.1141 3.9987 13.3489 4.1683C13.5838 4.3379 13.8088 4.52055 14.0241 4.71624C14.2393 4.91194 14.4416 5.12068 14.6307 5.34247C14.8199 5.56425 14.996 5.79583 15.1591 6.03718C15.3222 6.27854 15.4755 6.52968 15.619 6.79061C16.5583 8.60404 16.7149 10.4827 16.0887 12.4266C15.7886 13.3659 15.3254 14.2074 14.6992 14.9511C14.073 15.6947 13.3228 16.2948 12.4487 16.7515C12.3052 16.8297 12.2074 16.9472 12.1552 17.1037C12.103 17.2603 12.1161 17.4168 12.1943 17.5734C12.2987 17.7952 12.4748 17.9061 12.7227 17.9061C12.8271 17.9061 12.9249 17.88 13.0163 17.8278C14.0339 17.3059 14.908 16.6112 15.6386 15.7436C16.3692 14.8761 16.9041 13.8943 17.2433 12.7984C17.9478 10.6197 17.7977 8.49967 16.7932 6.43836L16.6953 6.24266Z" fill="#EB6271"/>
</svg>
