<svg width="22" height="17" viewBox="0 0 22 17" fill="none" xmlns="http://www.w3.org/2000/svg">
<path d="M13.8218 1.49554H2.88556C2.38548 1.49554 1.90588 1.69311 1.55227 2.04478C1.19866 2.39646 1 2.87343 1 3.37077V14.6221C1 15.1194 1.19866 15.5964 1.55227 15.9481C1.90588 16.2998 2.38548 16.4973 2.88556 16.4973H18.6644C19.1645 16.4973 19.6441 16.2998 19.9977 15.9481C20.3513 15.5964 20.55 15.1194 20.55 14.6221V8.19946" stroke="#EB6271" stroke-linecap="round" stroke-linejoin="round"/>
<path d="M4.00049 4.49591L10.7513 9.74653L14.8299 6.66789" stroke="#EB6271" stroke-linecap="round" stroke-linejoin="round"/>
<path d="M18.9999 5.24591C20.2414 5.24591 21.2478 4.23948 21.2478 2.99798C21.2478 1.75649 20.2414 0.750061 18.9999 0.750061C17.7584 0.750061 16.752 1.75649 16.752 2.99798C16.752 4.23948 17.7584 5.24591 18.9999 5.24591Z" fill="#EB6271"/>
<path d="M19.0019 5.99602C18.409 5.99602 17.8293 5.82019 17.3363 5.49077C16.8433 5.16134 16.459 4.69312 16.2321 4.1453C16.0052 3.59749 15.9458 2.99469 16.0615 2.41313C16.1772 1.83157 16.4627 1.29738 16.882 0.878098C17.3013 0.458819 17.8355 0.173286 18.417 0.0576073C18.9986 -0.0580716 19.6014 0.00129897 20.1492 0.228211C20.697 0.455124 21.1652 0.839387 21.4947 1.33241C21.8241 1.82543 21.9999 2.40506 21.9999 2.99801C21.9993 3.79294 21.6833 4.55514 21.1211 5.11724C20.559 5.67934 19.7969 5.9954 19.0019 5.99602ZM19.0019 1.50018C18.7051 1.49972 18.4148 1.5873 18.1678 1.75186C17.9208 1.91642 17.7282 2.15056 17.6143 2.42464C17.5004 2.69872 17.4703 3.00043 17.5279 3.29159C17.5856 3.58275 17.7283 3.85027 17.938 4.06031C18.1477 4.27035 18.415 4.41346 18.706 4.47154C18.9971 4.52961 19.2989 4.50004 19.5731 4.38656C19.8474 4.27309 20.0818 4.08081 20.2468 3.83405C20.4117 3.5873 20.4998 3.29716 20.4998 3.00036C20.4998 2.60289 20.342 2.22167 20.0612 1.9404C19.7804 1.65913 19.3994 1.5008 19.0019 1.50018Z" fill="#EB6271"/>
</svg>
