<svg width="19" height="20" viewBox="0 0 19 20" fill="none" xmlns="http://www.w3.org/2000/svg">
    <path d="M14.8571 2.85714H18.2857V20H0V2.85714H3.42857V1.71429C3.42857 1.24571 3.6 0.845714 3.93143 0.502857C4.26286 0.171429 4.67429 0 5.14286 0C5.61143 0 6.02286 0.171429 6.35429 0.502857C6.68571 0.845714 6.85714 1.24571 6.85714 1.71429V2.85714H11.4286V1.71429C11.4286 1.24571 11.6 0.845714 11.9314 0.502857C12.2629 0.171429 12.6743 0 13.1429 0C13.6114 0 14.0229 0.171429 14.3543 0.502857C14.6857 0.845714 14.8571 1.24571 14.8571 1.71429V2.85714ZM4.57143 1.71429V4.57143C4.57003 4.64685 4.58386 4.72179 4.61208 4.79175C4.64031 4.86171 4.68234 4.92526 4.73569 4.9786C4.78903 5.03194 4.85258 5.07398 4.92254 5.1022C4.9925 5.13043 5.06743 5.14425 5.14286 5.14286C5.21828 5.14425 5.29321 5.13043 5.36317 5.1022C5.43313 5.07398 5.49668 5.03194 5.55003 4.9786C5.60337 4.92526 5.64541 4.86171 5.67363 4.79175C5.70185 4.72179 5.71568 4.64685 5.71429 4.57143V1.71429C5.71429 1.55429 5.65714 1.41714 5.54286 1.31429C5.44 1.2 5.30286 1.14286 5.14286 1.14286C4.98286 1.14286 4.84571 1.2 4.74286 1.31429C4.62857 1.41714 4.57143 1.55429 4.57143 1.71429ZM12.5714 1.71429V4.57143C12.5714 4.73143 12.6286 4.86857 12.7314 4.98286C12.8457 5.08571 12.9829 5.14286 13.1429 5.14286C13.3029 5.14286 13.44 5.08571 13.5543 4.98286C13.6571 4.86857 13.7143 4.73143 13.7143 4.57143V1.71429C13.7157 1.63886 13.7019 1.56393 13.6736 1.49397C13.6454 1.42401 13.6034 1.36046 13.55 1.30712C13.4967 1.25377 13.4331 1.21173 13.3632 1.18351C13.2932 1.15529 13.2183 1.14146 13.1429 1.14286C13.0674 1.14146 12.9925 1.15529 12.9225 1.18351C12.8526 1.21173 12.789 1.25377 12.7357 1.30712C12.6823 1.36046 12.6403 1.42401 12.6121 1.49397C12.5839 1.56393 12.57 1.63886 12.5714 1.71429ZM17.1429 18.8571V7.42857H1.14286V18.8571H17.1429ZM5.71429 8.57143V10.8571H3.42857V8.57143H5.71429ZM8 8.57143H10.2857V10.8571H8V8.57143ZM12.5714 10.8571V8.57143H14.8571V10.8571H12.5714ZM5.71429 12V14.2857H3.42857V12H5.71429ZM8 12H10.2857V14.2857H8V12ZM12.5714 14.2857V12H14.8571V14.2857H12.5714ZM5.71429 15.4286V17.7143H3.42857V15.4286H5.71429ZM10.2857 17.7143H8V15.4286H10.2857V17.7143ZM14.8571 17.7143H12.5714V15.4286H14.8571V17.7143Z"
          fill="#434343"/>
</svg>
