<svg width="20" height="16" viewBox="0 0 20 16" fill="none" xmlns="http://www.w3.org/2000/svg">
<path d="M1.66667 0.409668H15.8333C16.2754 0.409668 16.6993 0.585263 17.0118 0.897823C17.3244 1.21038 17.5 1.63431 17.5 2.07633V5.40967H15.8333V2.07633H1.66667V13.743H15.8333V10.4097H17.5V13.743C17.5 14.185 17.3244 14.609 17.0118 14.9215C16.6993 15.2341 16.2754 15.4097 15.8333 15.4097H1.66667C1.22464 15.4097 0.800716 15.2341 0.488155 14.9215C0.175595 14.609 0 14.185 0 13.743V2.07633C0 1.63431 0.175595 1.21038 0.488155 0.897823C0.800716 0.585263 1.22464 0.409668 1.66667 0.409668ZM14.1667 10.4097V8.743H20V7.07633H14.1667V5.40967L10.8333 7.90967L14.1667 10.4097ZM3.33333 8.743H9.16667V7.07633H3.33333V8.743ZM3.33333 5.40967H9.16667V3.743H3.33333V5.40967ZM3.33333 12.0763H6.66667V10.4097H3.33333V12.0763Z" fill="#434343"/>
</svg>
