<svg width="27" height="27" viewBox="0 0 27 27" fill="none" xmlns="http://www.w3.org/2000/svg">
    <rect x="0.25" y="0.25" width="26.5" height="26.5" fill="white" stroke="#CBCBCB" stroke-width="0.5"/>
    <rect x="0.25" y="0.25" width="26.5" height="26.5" fill="white" stroke="#CBCBCB" stroke-width="0.5"/>
    <path d="M19.4212 6H6.78948C6.5801 6 6.37929 6.08318 6.23123 6.23123C6.08318 6.37929 6 6.5801 6 6.78948V8.83423C6 9.24713 6.16816 9.65292 6.46027 9.94503L10.7369 14.2216V20.2106C10.737 20.3451 10.7715 20.4774 10.8371 20.5948C10.9026 20.7123 10.997 20.8111 11.1114 20.8818C11.2258 20.9526 11.3564 20.993 11.4908 20.9992C11.6251 21.0054 11.7588 20.9772 11.8793 20.9172L15.0372 19.3383C15.3048 19.2041 15.4738 18.9309 15.4738 18.6317V14.2216L19.7504 9.94503C20.0425 9.65292 20.2106 9.24713 20.2106 8.83423V6.78948C20.2106 6.5801 20.1275 6.37929 19.9794 6.23123C19.8313 6.08318 19.6305 6 19.4212 6ZM14.1261 13.3366C14.0527 13.4098 13.9944 13.4968 13.9547 13.5926C13.915 13.6884 13.8946 13.7911 13.8948 13.8948V18.1438L12.3158 18.9333V13.8948C12.316 13.7911 12.2956 13.6884 12.2559 13.5926C12.2162 13.4968 12.158 13.4098 12.0845 13.3366L7.57896 8.83423V7.57896H18.6325L18.634 8.82871L14.1261 13.3366Z"
          fill="#434343"/>
</svg>
