<svg width="20" height="20" viewBox="0 0 20 20" fill="none" xmlns="http://www.w3.org/2000/svg">
<path d="M2.5 20V2.5H20V20H2.5ZM18.75 3.75H3.75V16.25H18.75V3.75ZM7.5 5C8.1901 5 8.7793 5.24414 9.26758 5.73242C9.75586 6.2207 10 6.8099 10 7.5C10 8.1901 9.75586 8.7793 9.26758 9.26758C8.7793 9.75586 8.1901 10 7.5 10C6.8099 10 6.22396 9.75586 5.74219 9.26758C5.26042 8.7793 5.01302 8.1901 5 7.5V7.48047C5.01302 6.79036 5.26042 6.20443 5.74219 5.72266C6.22396 5.24089 6.8099 5 7.5 5ZM8.41797 11.582L11.8164 15H5V13.1836L6.60156 11.582C6.83594 11.3477 7.13867 11.2305 7.50977 11.2305C7.88086 11.2305 8.18359 11.3477 8.41797 11.582ZM13.4766 9.08203C13.7109 8.84766 14.0137 8.73047 14.3848 8.73047C14.7559 8.73047 15.0586 8.84766 15.293 9.08203L17.5 11.2891V15H13.5742L10.5859 12.0117L13.4766 9.08203ZM1.25 17.5H0V0H17.5V1.25H1.25V17.5Z" fill="#434343"/>
</svg>
