<svg width="20" height="20" viewBox="0 0 20 20" fill="none" xmlns="http://www.w3.org/2000/svg">
    <path d="M16.8508 5.53339H14.4665H5.5332V14.4667V16.851C5.5332 18.5902 6.943 20 8.6822 20H11.3175C13.0567 20 14.4665 18.5902 14.4665 16.851V14.4667H16.8508C18.59 14.4667 19.9998 13.0569 19.9998 11.3176V8.68239C19.9998 6.94318 18.59 5.53339 16.8508 5.53339Z"
          fill="#F4B2AF"/>
    <path d="M11.3176 0H8.68237C6.94316 0 5.53337 1.4098 5.53337 3.149V5.53337H3.149C1.4098 5.53337 0 6.94316 0 8.68237V11.3176C0 13.0568 1.4098 14.4666 3.149 14.4666H5.53337H14.4666V5.53337V3.149C14.4666 1.4098 13.0568 0 11.3176 0Z"
          fill="white"/>
    <path d="M11.3176 0H8.68237C6.94316 0 5.53337 1.4098 5.53337 3.149V5.53337H3.149C1.4098 5.53337 0 6.94316 0 8.68237V11.3176C0 13.0568 1.4098 14.4666 3.149 14.4666H5.53337H10V17.7266L12.1727 14.4666H12.6506H14.4666V5.53337V3.149C14.4666 1.4098 13.0568 0 11.3176 0ZM12.6506 5.53337V12.6506H5.53337H3.6525C2.6199 12.6506 1.78358 11.8143 1.78358 10.7817V9.2183C1.78358 8.1857 2.6199 7.34938 3.6525 7.34938H5.53166H7.34767V5.53337V3.6525C7.34767 2.6199 8.18399 1.78358 9.21659 1.78358H10.78C11.8126 1.78358 12.6489 2.6199 12.6489 3.6525V5.53337H12.6506Z"
          fill="#EB6271"/>
    <path d="M10 12.5909V14.4666L11.2971 12.5909H10Z" fill="white"/>
</svg>
