<svg width="20" height="20" viewBox="0 0 20 20" fill="none" xmlns="http://www.w3.org/2000/svg">
    <path d="M12.381 10V13.8095L15.2381 15.7143L15.9524 14.5238L13.8095 13.0952V10H12.381ZM19.0476 9.89524V9.52381C19.0476 4.28571 14.7619 0 9.52381 0C4.25714 0 0 4.28571 0 9.52381C0 14.7619 4.28571 19.0476 9.52381 19.0476C9.64762 19.0476 9.75238 19.0476 9.87619 19.019C10.8857 19.6381 12.0667 20 13.3333 20C17.0095 20 20 17.0095 20 13.3333C20 12.0762 19.6381 10.8952 19.0476 9.89524ZM16.9143 7.72381L16.7524 7.61905H16.8952C16.9048 7.64762 16.9048 7.68571 16.9143 7.72381ZM16.1143 5.71429H13.3048C13.0067 4.53472 12.5653 3.39609 11.9905 2.32381C13.7429 2.92381 15.2 4.13333 16.1143 5.71429ZM9.52381 1.93333C10.3143 3.07619 10.9524 4.35238 11.3429 5.71429H7.70476C8.09524 4.35238 8.73333 3.07619 9.52381 1.93333ZM7.29524 7.61905H9.91429C8.7107 8.33767 7.76427 9.41741 7.20952 10.7048C7.17143 10.3143 7.14286 9.92381 7.14286 9.52381C7.14286 8.87619 7.2 8.2381 7.29524 7.61905ZM7.04762 2.32381C6.47619 3.38095 6.04762 4.52381 5.71429 5.71429H2.93333C3.84653 4.12116 5.30933 2.9157 7.04762 2.32381ZM2.15238 11.4286C2 10.819 1.90476 10.181 1.90476 9.52381C1.90476 8.86667 2 8.22857 2.15238 7.61905H5.37143C5.29524 8.24762 5.2381 8.87619 5.2381 9.52381C5.2381 10.1714 5.29524 10.8 5.37143 11.4286H2.15238ZM2.93333 13.3333H5.71429C6.04762 14.5238 6.47619 15.6667 7.04762 16.7238C5.31297 16.1254 3.85223 14.9216 2.93333 13.3333ZM13.3333 18.0952C10.7048 18.0952 8.57143 15.9619 8.57143 13.3333C8.57143 10.7048 10.7048 8.57143 13.3333 8.57143C15.9619 8.57143 18.0952 10.7048 18.0952 13.3333C18.0952 15.9619 15.9619 18.0952 13.3333 18.0952Z"
          fill="#EB6271"/>
</svg>
