<svg width="20" height="20" viewBox="0 0 20 20" fill="none" xmlns="http://www.w3.org/2000/svg">
    <path d="M17.5 10V16.25C17.5 17.2917 17.1354 18.1771 16.4062 18.9062C15.6771 19.6354 14.7917 20 13.75 20H3.75C2.70833 20 1.82292 19.6354 1.09375 18.9062C0.364583 18.1771 0 17.2917 0 16.25V6.25C0 5.20833 0.364583 4.32292 1.09375 3.59375C1.82292 2.86458 2.70833 2.5 3.75 2.5H10C10 1.8099 10.2441 1.2207 10.7324 0.732422C11.2207 0.244141 11.8099 0 12.5 0H17.5C18.1901 0 18.7793 0.244141 19.2676 0.732422C19.7559 1.2207 20 1.8099 20 2.5V7.5C20 8.1901 19.7559 8.7793 19.2676 9.26758C18.7793 9.75586 18.1901 10 17.5 10ZM18.75 2.5C18.75 2.14844 18.6263 1.85221 18.3789 1.61133C18.1315 1.37044 17.8385 1.25 17.5 1.25H12.5C12.1484 1.25 11.8522 1.37044 11.6113 1.61133C11.3704 1.85221 11.25 2.14844 11.25 2.5V7.5C11.25 7.85156 11.3704 8.14779 11.6113 8.38867C11.8522 8.62956 12.1484 8.75 12.5 8.75H17.5C17.8385 8.75 18.1315 8.62956 18.3789 8.38867C18.6263 8.14779 18.75 7.85156 18.75 7.5V2.5ZM15.625 7.5C15.4557 7.5 15.3092 7.43815 15.1855 7.31445C15.0618 7.19076 15 7.04427 15 6.875V5H14.375C14.2057 5 14.0592 4.93815 13.9355 4.81445C13.8118 4.69076 13.75 4.54427 13.75 4.375C13.75 4.20573 13.8118 4.05924 13.9355 3.93555C14.0592 3.81185 14.2057 3.75 14.375 3.75L15 3.125C15 2.95573 15.0618 2.80924 15.1855 2.68555C15.3092 2.56185 15.4557 2.5 15.625 2.5C15.7943 2.5 15.9408 2.56185 16.0645 2.68555C16.1882 2.80924 16.25 2.95573 16.25 3.125V6.875C16.25 7.04427 16.1882 7.19076 16.0645 7.31445C15.9408 7.43815 15.7943 7.5 15.625 7.5Z"
          fill="#434343"/>
</svg>
