<svg width="20" height="19" viewBox="0 0 20 19" fill="none" xmlns="http://www.w3.org/2000/svg">
    <path d="M4.28571 19V15.3462H1.07143C0.787268 15.3462 0.514746 15.2307 0.313814 15.0251C0.112882 14.8195 0 14.5407 0 14.25V1.09615C0 0.805436 0.112882 0.526625 0.313814 0.321056C0.514746 0.115487 0.787268 0 1.07143 0H18.9286C19.2127 0 19.4853 0.115487 19.6862 0.321056C19.8871 0.526625 20 0.805436 20 1.09615V14.25C20 14.5407 19.8871 14.8195 19.6862 15.0251C19.4853 15.2307 19.2127 15.3462 18.9286 15.3462H9.54196L4.28571 19Z"
          fill="#434343"/>
    <path d="M6.64706 2H1V2.68085H6.64706V2Z" fill="white"/>
    <path d="M19 3.36169H1V4.04255H19V3.36169Z" fill="white"/>
    <path d="M12.6471 4.72339H1V5.40424H12.6471V4.72339Z" fill="white"/>
    <path d="M3.73098 7.5451C3.84102 7.32212 4.15898 7.32212 4.26902 7.5451L4.81188 8.64504C4.85558 8.73358 4.94004 8.79496 5.03776 8.80915L6.25162 8.98554C6.49769 9.02129 6.59594 9.32369 6.41788 9.49725L5.53953 10.3534C5.46882 10.4224 5.43655 10.5217 5.45325 10.619L5.6606 11.8279C5.70263 12.073 5.4454 12.2599 5.22531 12.1442L4.1396 11.5734C4.05221 11.5274 3.94779 11.5274 3.8604 11.5734L2.77469 12.1442C2.5546 12.2599 2.29737 12.073 2.3394 11.8279L2.54675 10.619C2.56344 10.5217 2.53118 10.4224 2.46047 10.3534L1.58212 9.49725C1.40406 9.32369 1.50231 9.02129 1.74838 8.98554L2.96224 8.80915C3.05995 8.79496 3.14442 8.73358 3.18812 8.64504L3.73098 7.5451Z"
          fill="white"/>
    <path d="M9.73098 7.5451C9.84102 7.32212 10.159 7.32212 10.269 7.5451L10.8119 8.64504C10.8556 8.73358 10.94 8.79496 11.0378 8.80915L12.2516 8.98554C12.4977 9.02129 12.5959 9.32369 12.4179 9.49725L11.5395 10.3534C11.4688 10.4224 11.4366 10.5217 11.4532 10.619L11.6606 11.8279C11.7026 12.073 11.4454 12.2599 11.2253 12.1442L10.1396 11.5734C10.0522 11.5274 9.94779 11.5274 9.8604 11.5734L8.77469 12.1442C8.5546 12.2599 8.29737 12.073 8.3394 11.8279L8.54675 10.619C8.56344 10.5217 8.53118 10.4224 8.46047 10.3534L7.58212 9.49725C7.40406 9.32369 7.50231 9.02129 7.74838 8.98554L8.96224 8.80915C9.05995 8.79496 9.14442 8.73358 9.18812 8.64504L9.73098 7.5451Z"
          fill="white"/>
    <path d="M15.731 7.5451C15.841 7.32212 16.159 7.32212 16.269 7.5451L16.8119 8.64504C16.8556 8.73358 16.94 8.79496 17.0378 8.80915L18.2516 8.98554C18.4977 9.02129 18.5959 9.32369 18.4179 9.49725L17.5395 10.3534C17.4688 10.4224 17.4366 10.5217 17.4532 10.619L17.6606 11.8279C17.7026 12.073 17.4454 12.2599 17.2253 12.1442L16.1396 11.5734C16.0522 11.5274 15.9478 11.5274 15.8604 11.5734L14.7747 12.1442C14.5546 12.2599 14.2974 12.073 14.3394 11.8279L14.5468 10.619C14.5634 10.5217 14.5312 10.4224 14.4605 10.3534L13.5821 9.49725C13.4041 9.32369 13.5023 9.02129 13.7484 8.98554L14.9622 8.80915C15.06 8.79496 15.1444 8.73358 15.1881 8.64504L15.731 7.5451Z"
          fill="white"/>
</svg>
