<svg width="20" height="18" viewBox="0 0 20 18" fill="none" xmlns="http://www.w3.org/2000/svg">
<path d="M10 0C4.47734 0 0 3.6375 0 8.125C0 10.0609 0.836328 11.8359 2.22656 13.232C1.73672 15.1973 0.105469 16.9531 0.0859375 16.9727C0.0439675 17.017 0.0159011 17.0726 0.00520444 17.1327C-0.0054922 17.1928 0.00164938 17.2548 0.0257472 17.3109C0.049845 17.3669 0.0898437 17.4147 0.140804 17.4484C0.191764 17.482 0.251453 17.4999 0.3125 17.5C2.90078 17.5 4.84375 16.2598 5.80469 15.493C7.14616 15.9958 8.5674 16.2522 10 16.25C15.523 16.25 20 12.6125 20 8.125C20 3.6375 15.523 0 10 0ZM13.75 9.0625C13.75 9.14538 13.7171 9.22487 13.6585 9.28347C13.5999 9.34208 13.5204 9.375 13.4375 9.375H11.25V11.5625C11.25 11.6454 11.2171 11.7249 11.1585 11.7835C11.0999 11.8421 11.0204 11.875 10.9375 11.875H9.0625C8.97962 11.875 8.90013 11.8421 8.84153 11.7835C8.78292 11.7249 8.75 11.6454 8.75 11.5625V9.375H6.5625C6.47962 9.375 6.40013 9.34208 6.34153 9.28347C6.28292 9.22487 6.25 9.14538 6.25 9.0625V7.1875C6.25 7.10462 6.28292 7.02513 6.34153 6.96653C6.40013 6.90792 6.47962 6.875 6.5625 6.875H8.75V4.6875C8.75 4.60462 8.78292 4.52513 8.84153 4.46653C8.90013 4.40792 8.97962 4.375 9.0625 4.375H10.9375C11.0204 4.375 11.0999 4.40792 11.1585 4.46653C11.2171 4.52513 11.25 4.60462 11.25 4.6875V6.875H13.4375C13.5204 6.875 13.5999 6.90792 13.6585 6.96653C13.7171 7.02513 13.75 7.10462 13.75 7.1875V9.0625Z" fill="#434343"/>
</svg>
