<svg width="20" height="20" viewBox="0 0 20 20" fill="none" xmlns="http://www.w3.org/2000/svg">
    <path d="M17.1599 10.975C17.1974 10.6625 17.2224 10.3375 17.2224 10C17.2224 9.66252 17.1974 9.33752 17.1474 9.02502L19.2599 7.37502C19.3505 7.2991 19.4123 7.19439 19.4351 7.07837C19.4578 6.96236 19.4401 6.84205 19.3849 6.73752L17.3849 3.27503C17.2599 3.05003 16.9974 2.97503 16.7724 3.05003L14.2849 4.05003C13.7683 3.65129 13.2008 3.32339 12.5974 3.07503L12.2224 0.425031C12.2043 0.305805 12.1437 0.19713 12.0518 0.11903C11.96 0.0409303 11.8429 -0.0013312 11.7224 3.19772e-05H7.72237C7.60315 -0.00117789 7.48764 0.0414377 7.39777 0.119786C7.3079 0.198134 7.24993 0.306759 7.23487 0.425031L6.85987 3.07503C6.25746 3.32545 5.6902 3.6532 5.17238 4.05003L2.68488 3.05003C2.57287 3.00684 2.44897 3.00586 2.33628 3.04725C2.2236 3.08865 2.1298 3.1696 2.07238 3.27503L0.0723836 6.73752C0.0105302 6.84038 -0.0109289 6.96255 0.0121662 7.08033C0.0352612 7.19812 0.101265 7.30313 0.197383 7.37502L2.30988 9.02502C2.25988 9.33752 2.22238 9.67502 2.22238 10C2.22238 10.325 2.24738 10.6625 2.29738 10.975L0.184883 12.625C0.0942542 12.7009 0.0324039 12.8056 0.00965531 12.9217C-0.0130933 13.0377 0.00463572 13.158 0.0598836 13.2625L2.05988 16.725C2.18488 16.95 2.44738 17.025 2.67238 16.95L5.15988 15.95C5.67642 16.3487 6.24395 16.6766 6.84737 16.925L7.22237 19.575C7.27237 19.825 7.47237 20 7.72237 20H11.7224C11.9724 20 12.1849 19.825 12.2099 19.575L12.5849 16.925C13.1873 16.6746 13.7545 16.3468 14.2724 15.95L16.7599 16.95C16.9849 17.0375 17.2474 16.95 17.3724 16.725L19.3724 13.2625C19.4342 13.1596 19.4557 13.0375 19.4326 12.9197C19.4095 12.8019 19.3435 12.6969 19.2474 12.625L17.1599 10.975ZM9.72237 13.75C7.65987 13.75 5.97237 12.0625 5.97237 10C5.97237 7.93752 7.65987 6.25002 9.72237 6.25002C11.7849 6.25002 13.4724 7.93752 13.4724 10C13.4724 12.0625 11.7849 13.75 9.72237 13.75Z"
          fill="#434343"/>
</svg>
