<svg width="18" height="16" viewBox="0 0 18 16" fill="none" xmlns="http://www.w3.org/2000/svg">
    <path d="M8.91705 10.3927C9.53022 10.3927 10.1183 10.1491 10.5519 9.71556C10.9854 9.28199 11.229 8.69393 11.229 8.08076C11.229 8.01305 11.2259 7.94596 11.2201 7.8797L8.71599 10.3838C8.78226 10.3896 8.84914 10.3927 8.91705 10.3927ZM16.5697 0.929354L15.6878 0.0483301C15.6568 0.0173837 15.6149 0 15.5711 0C15.5273 0 15.4853 0.0173837 15.4543 0.0483301L13.1977 2.30559C11.9528 1.66939 10.5535 1.35129 8.99962 1.35129C5.03213 1.35129 2.07199 3.41761 0.119201 7.55024C0.0407084 7.71645 0 7.89798 0 8.08179C0 8.2656 0.0407084 8.44713 0.119201 8.61333C0.899489 10.2569 1.83907 11.5742 2.93794 12.5653L0.754165 14.7483C0.723219 14.7793 0.705835 14.8213 0.705835 14.865C0.705835 14.9088 0.723219 14.9508 0.754165 14.9818L1.6354 15.863C1.66636 15.8939 1.70835 15.9113 1.75213 15.9113C1.79591 15.9113 1.8379 15.8939 1.86886 15.863L16.5697 1.16303C16.585 1.14769 16.5972 1.12948 16.6055 1.10943C16.6138 1.08938 16.6181 1.06789 16.6181 1.04619C16.6181 1.02449 16.6138 1.003 16.6055 0.982952C16.5972 0.962904 16.585 0.944691 16.5697 0.929354ZM5.28397 8.08076C5.28391 7.45324 5.44639 6.8364 5.75558 6.29034C6.06477 5.74427 6.51013 5.28761 7.04827 4.96482C7.58641 4.64204 8.19898 4.46415 8.8263 4.44847C9.45363 4.4328 10.0743 4.57988 10.6279 4.87538L9.62427 5.87902C9.21951 5.74942 8.78687 5.73381 8.37382 5.83391C7.96078 5.93401 7.58328 6.14595 7.28276 6.44647C6.98224 6.74699 6.7703 7.12448 6.67021 7.53753C6.57011 7.95057 6.58572 8.38321 6.71532 8.78797L5.71168 9.79161C5.43003 9.26539 5.28309 8.67761 5.28397 8.08076Z"
          fill="#CBCBCB"/>
    <path d="M17.881 7.54821C17.1544 6.01791 16.2895 4.77007 15.2864 3.80469L12.311 6.78031C12.5618 7.43595 12.6174 8.15019 12.4711 8.83674C12.3247 9.52329 11.9827 10.1528 11.4863 10.6491C10.99 11.1455 10.3605 11.4875 9.67393 11.6339C8.98738 11.7802 8.27314 11.7246 7.61751 11.4738L5.09375 13.9976C6.26459 14.5394 7.56686 14.8103 9.00056 14.8103C12.9681 14.8103 15.9282 12.7439 17.881 8.6113C17.9595 8.4451 18.0002 8.26357 18.0002 8.07976C18.0002 7.89595 17.9595 7.71442 17.881 7.54821Z"
          fill="#CBCBCB"/>
</svg>
